<?xml version="1.0" encoding="UTF-8" standalone="no"?>
<svg
   xmlns:dc="http://purl.org/dc/elements/1.1/"
   xmlns:cc="http://creativecommons.org/ns#"
   xmlns:rdf="http://www.w3.org/1999/02/22-rdf-syntax-ns#"
   xmlns:svg="http://www.w3.org/2000/svg"
   xmlns="http://www.w3.org/2000/svg"
   xmlns:sodipodi="http://sodipodi.sourceforge.net/DTD/sodipodi-0.dtd"
   xmlns:inkscape="http://www.inkscape.org/namespaces/inkscape"
   version="1.1"
   x="0px"
   y="0px"
   viewBox="0 0 24 30"
   style="enable-background:new 0 0 24 24;"
   xml:space="preserve"
   id="svg4566"
   sodipodi:docname="10.svg"
   inkscape:version="0.92.4 (5da689c313, 2019-01-14)"><metadata
     id="metadata4572"><rdf:RDF><cc:Work
         rdf:about=""><dc:format>image/svg+xml</dc:format><dc:type
           rdf:resource="http://purl.org/dc/dcmitype/StillImage" /></cc:Work></rdf:RDF></metadata><defs
     id="defs4570" /><sodipodi:namedview
     pagecolor="#ffffff"
     bordercolor="#666666"
     borderopacity="1"
     objecttolerance="10"
     gridtolerance="10"
     guidetolerance="10"
     inkscape:pageopacity="0"
     inkscape:pageshadow="2"
     inkscape:window-width="1920"
     inkscape:window-height="1001"
     id="namedview4568"
     showgrid="false"
     inkscape:zoom="26.933333"
     inkscape:cx="12"
     inkscape:cy="15"
     inkscape:window-x="1911"
     inkscape:window-y="-9"
     inkscape:window-maximized="1"
     inkscape:current-layer="svg4566" /><g
     id="g4560"
     style="opacity:0.951;fill-rule:nonzero"><path
       d="M0.262,10.084v9.966h0.634c0.204-1.31,1.33-2.319,2.697-2.319c1.363,0,2.487,1.004,2.695,2.309h6.77V8H2.357   C1.202,8,0.262,8.935,0.262,10.084z"
       id="path4546"
       style="fill-rule:nonzero;fill:#0190b0;fill-opacity:1" /><path
       d="M15.985,10.511v2.719c0,0.208,0.176,0.383,0.384,0.383h6.123c-0.971-1.532-2.147-2.692-3.127-3.486h-2.996   C16.154,10.127,15.985,10.296,15.985,10.511z"
       id="path4548"
       style="fill-rule:nonzero;fill:#0190b0;fill-opacity:1" /><path
       d="M3.593,18.564c-1.05,0-1.903,0.851-1.906,1.9c0,0.001,0,0.002,0,0.002c0,0.002-0.001,0.003-0.001,0.004   c0.001,1.051,0.855,1.904,1.906,1.904c1.051,0,1.906-0.854,1.906-1.905S4.644,18.564,3.593,18.564z M3.593,21.317   c-0.468,0-0.847-0.379-0.847-0.847c0-0.468,0.379-0.847,0.847-0.847S4.44,20.002,4.44,20.47C4.44,20.937,4.061,21.317,3.593,21.317   z"
       id="path4550"
       style="fill-rule:nonzero;fill:#0190b0;fill-opacity:1" /><path
       d="M14.383,5.822c0,0.23-0.187,0.416-0.416,0.416h-1.218c-0.23,0-0.416-0.187-0.416-0.416s0.187-0.416,0.416-0.416h1.218   C14.196,5.406,14.383,5.592,14.383,5.822z M11.704,3.716l0.861-0.862c0.163-0.163,0.426-0.163,0.589,0   c0.163,0.162,0.163,0.426,0,0.589l-0.861,0.862c-0.081,0.081-0.188,0.122-0.294,0.122c-0.107,0-0.213-0.041-0.294-0.122   C11.541,4.143,11.541,3.879,11.704,3.716z M9.77,2.041c0-0.23,0.187-0.416,0.416-0.416s0.416,0.187,0.416,0.416V3.26   c0,0.23-0.187,0.416-0.416,0.416S9.77,3.49,9.77,3.26V2.041z M7.219,2.854c0.163-0.163,0.426-0.163,0.589,0l0.862,0.862   c0.163,0.163,0.163,0.426,0,0.589C8.588,4.386,8.481,4.427,8.375,4.427c-0.107,0-0.213-0.041-0.294-0.122L7.219,3.443   C7.056,3.28,7.056,3.017,7.219,2.854z M6.406,5.406h1.219c0.23,0,0.416,0.187,0.416,0.416S7.854,6.239,7.624,6.239H6.406   c-0.23,0-0.416-0.187-0.416-0.416S6.176,5.406,6.406,5.406z"
       id="path4552"
       style="fill-rule:nonzero;fill:#0190b0;fill-opacity:1" /><path
       d="M11.15,6.136c0-0.526-0.433-0.954-0.965-0.954c-0.532,0-0.965,0.428-0.965,0.954v1.031h1.93V6.136z"
       id="path4554"
       style="fill-rule:nonzero;fill:#0190b0;fill-opacity:1" /><path
       d="M18.684,20.461c-0.005-1.047-0.857-1.897-1.905-1.897c-0.191,0-0.378,0.027-0.556,0.081   c-0.8,0.244-1.337,0.967-1.347,1.803c0,0.003,0.002,0.005,0.002,0.008c0,0.007-0.004,0.014-0.004,0.021   c0.004,1.048,0.857,1.898,1.906,1.898c1.049,0,1.903-0.852,1.906-1.901c0-0.003-0.002-0.005-0.002-0.008   C18.683,20.464,18.684,20.463,18.684,20.461z M16.779,21.317c-0.468,0-0.847-0.379-0.847-0.847c0-0.468,0.379-0.847,0.847-0.847   c0.468,0,0.847,0.379,0.847,0.847C17.626,20.937,17.247,21.317,16.779,21.317z"
       id="path4556"
       style="fill-rule:nonzero;fill:#0190b0;fill-opacity:1" /><path
       d="M22.975,14.447h-6.606c-0.671,0-1.217-0.546-1.217-1.217v-2.719c0-0.671,0.546-1.217,1.217-1.217h1.888   c-0.696-0.48-1.32-0.837-1.77-1.066C16.203,8.078,15.877,8,15.536,8h-1.645v12.039h0.183c0.16-1.026,0.885-1.879,1.906-2.191h0.001   c0.257-0.078,0.526-0.118,0.799-0.118c1.367,0,2.492,1.009,2.696,2.319h3.44c0.512,0,0.823-0.236,0.823-0.34v-3.311   c0-0.166-0.026-0.309-0.081-0.451C23.461,15.414,23.226,14.92,22.975,14.447z"
       id="path4558"
       style="fill-rule:nonzero;fill:#0190b0;fill-opacity:1" /></g><text
     x="0"
     y="39"
     fill="#000000"
     font-size="5px"
     font-weight="bold"
     font-family="'Helvetica Neue', Helvetica, Arial-Unicode, Arial, Sans-serif"
     id="text4562">Created by Atif Arshad</text>
<text
     x="0"
     y="44"
     fill="#000000"
     font-size="5px"
     font-weight="bold"
     font-family="'Helvetica Neue', Helvetica, Arial-Unicode, Arial, Sans-serif"
     id="text4564">from the Noun Project</text>
</svg>