<?xml version="1.0" encoding="UTF-8" standalone="no"?>
<svg
   xmlns:dc="http://purl.org/dc/elements/1.1/"
   xmlns:cc="http://creativecommons.org/ns#"
   xmlns:rdf="http://www.w3.org/1999/02/22-rdf-syntax-ns#"
   xmlns:svg="http://www.w3.org/2000/svg"
   xmlns="http://www.w3.org/2000/svg"
   xmlns:sodipodi="http://sodipodi.sourceforge.net/DTD/sodipodi-0.dtd"
   xmlns:inkscape="http://www.inkscape.org/namespaces/inkscape"
   version="1.1"
   x="0px"
   y="0px"
   viewBox="0 0 100 125"
   style="enable-background:new 0 0 100 100;"
   xml:space="preserve"
   id="svg891"
   sodipodi:docname="1030.svg"
   inkscape:version="0.92.4 (5da689c313, 2019-01-14)"><metadata
     id="metadata897"><rdf:RDF><cc:Work
         rdf:about=""><dc:format>image/svg+xml</dc:format><dc:type
           rdf:resource="http://purl.org/dc/dcmitype/StillImage" /></cc:Work></rdf:RDF></metadata><defs
     id="defs895" /><sodipodi:namedview
     pagecolor="#ffffff"
     bordercolor="#666666"
     borderopacity="1"
     objecttolerance="10"
     gridtolerance="10"
     guidetolerance="10"
     inkscape:pageopacity="0"
     inkscape:pageshadow="2"
     inkscape:window-width="1920"
     inkscape:window-height="1001"
     id="namedview893"
     showgrid="false"
     inkscape:zoom="5.3400704"
     inkscape:cx="48.471792"
     inkscape:cy="60.415215"
     inkscape:window-x="1911"
     inkscape:window-y="-9"
     inkscape:window-maximized="1"
     inkscape:current-layer="svg891" /><path
     d="M68.4,28h3.2c0.4,0,0.7-0.3,0.7-0.7V15.2C72.3,9.6,67.7,5,62.1,5H27.7c-5.6,0-10.2,4.6-10.2,10.2v58.4c0,0,0,0,0,0v11.2  c0,5.6,4.6,10.2,10.2,10.2h34.3c5.6,0,10.2-4.6,10.2-10.2v-10c0,0,0,0,0,0V63.4c0-0.4-0.3-0.7-0.7-0.7h-3.2c-0.4,0-0.7,0.3-0.7,0.7  V72c0,1.1-0.9,2-2,2H24.1c-1.1,0-2-0.9-2-2V21.1c0-1.1,0.9-2,2-2h41.7c1.1,0,2,0.9,2,2v6.3C67.8,27.7,68.1,28,68.4,28z M44.9,79.8  c2.7,0,4.9,2.2,4.9,4.9c0,2.7-2.2,4.9-4.9,4.9c-2.7,0-4.9-2.2-4.9-4.9C40,82,42.2,79.8,44.9,79.8z M52.5,13.6c0,0.2-0.2,0.3-0.3,0.3  H37.7c-0.2,0-0.3-0.1-0.3-0.3v-1.4c0-0.2,0.2-0.3,0.3-0.3h14.5c0.2,0,0.3,0.2,0.3,0.3V13.6z"
     id="path883"
     style="fill:#0190b0;fill-opacity:1" /><path
     d="M82.4,54V36.9c0-2.8-2.3-5.1-5.1-5.1H54.8c-2.8,0-5.1,2.3-5.1,5.1V54c0,2.8,2.3,5.1,5.1,5.1h2.6v4.3c0,1.1,1.3,1.8,2.2,1.1  l7.6-5.4h10.2C80.2,59.1,82.4,56.8,82.4,54z M75,47.9h-6.5v6.5h-4.9v-6.5h-6.5V43h6.5v-6.5h4.9V43H75V47.9z"
     id="path885"
     style="fill:#0190b0;fill-opacity:1" /></svg>