<?xml version="1.0" encoding="UTF-8" standalone="no"?>
<svg
   xmlns:dc="http://purl.org/dc/elements/1.1/"
   xmlns:cc="http://creativecommons.org/ns#"
   xmlns:rdf="http://www.w3.org/1999/02/22-rdf-syntax-ns#"
   xmlns:svg="http://www.w3.org/2000/svg"
   xmlns="http://www.w3.org/2000/svg"
   xmlns:sodipodi="http://sodipodi.sourceforge.net/DTD/sodipodi-0.dtd"
   xmlns:inkscape="http://www.inkscape.org/namespaces/inkscape"
   version="1.1"
   x="0px"
   y="0px"
   viewBox="0 0 90 112.5"
   style="enable-background:new 0 0 90 90;"
   xml:space="preserve"
   id="svg919"
   sodipodi:docname="99.svg"
   inkscape:version="0.92.4 (5da689c313, 2019-01-14)"><metadata
     id="metadata925"><rdf:RDF><cc:Work
         rdf:about=""><dc:format>image/svg+xml</dc:format><dc:type
           rdf:resource="http://purl.org/dc/dcmitype/StillImage" /></cc:Work></rdf:RDF></metadata><defs
     id="defs923" /><sodipodi:namedview
     pagecolor="#ffffff"
     bordercolor="#666666"
     borderopacity="1"
     objecttolerance="10"
     gridtolerance="10"
     guidetolerance="10"
     inkscape:pageopacity="0"
     inkscape:pageshadow="2"
     inkscape:window-width="1920"
     inkscape:window-height="1001"
     id="namedview921"
     showgrid="false"
     inkscape:zoom="8.3911111"
     inkscape:cx="41.312295"
     inkscape:cy="130.28995"
     inkscape:window-x="-9"
     inkscape:window-y="-9"
     inkscape:window-maximized="1"
     inkscape:current-layer="svg919" /><polygon
     points="80.360291,43.075195 75.117188,36.589783 58.702576,36.589783 58.702576,49.78656 80.360291,49.78656 "
     id="polygon897"
     style="fill:#00a5cb;fill-opacity:1" /><path
     d="M70.617615,68.43457c0.418457-0.361877,1.049805-0.313965,1.410156,0.104431  c0.36084,0.418457,0.314026,1.049744-0.104492,1.410156l-4.808289,4.144531h10.002197V57.763855l-12.095764,9.026611  c-0.179626,0.134277-0.389099,0.19873-0.597107,0.19873c-0.305237,0-0.606018-0.138611-0.802307-0.401794  c-0.330505-0.442932-0.239197-1.069397,0.203186-1.399414l13.291992-9.919434V51.78656H58.702576v5.367737l5.108398-3.955627  c0.435547-0.338379,1.064514-0.258789,1.402832,0.178223c0.338379,0.436584,0.258301,1.065002-0.178223,1.402893l-6.333008,4.903809  v14.410095h5.349426L70.617615,68.43457z"
     id="path899"
     style="fill:#00a5cb;fill-opacity:1" /><polygon
     points="31.297302,24.094604 13.423279,37.70697 13.423279,74.093689 31.297302,74.093689 "
     id="polygon901"
     style="fill:#00a5cb;fill-opacity:1" /><rect
     x="8.134705"
     y="76.093689"
     width="73.730469"
     height="2.883789"
     id="rect903"
     style="fill:#00a5cb;fill-opacity:1" /><rect
     x="38.016113"
     y="40.518494"
     width="13.967773"
     height="4.405762"
     id="rect905"
     style="fill:#00a5cb;fill-opacity:1" /><rect
     x="38.016113"
     y="51.78656"
     width="13.967773"
     height="4.405334"
     id="rect907"
     style="fill:#00a5cb;fill-opacity:1" /><path
     d="M56.702576,11.0224H33.297302v63.071289h23.405273V11.0224z M37.666504,21.418396c0-0.552185,0.447693-1,1-1h3.414001  v-3.414001c0-0.552307,0.447815-1,1-1h3.838867c0.552246,0,1,0.447693,1,1v3.414001h3.414124c0.552185,0,1,0.447815,1,1v3.838379  c0,0.552307-0.447815,1-1,1h-3.414124v3.414124c0,0.552185-0.447754,1-1,1h-3.838867c-0.552185,0-1-0.447815-1-1v-3.414124  h-3.414001c-0.552307,0-1-0.447693-1-1V21.418396z M53.983887,69.191895c0,0.552185-0.447815,1-1,1H37.016113  c-0.552307,0-1-0.447815-1-1V62.78656c0-0.552185,0.447693-1,1-1h15.967773c0.552185,0,1,0.447815,1,1V69.191895z   M53.983887,57.191895c0,0.552185-0.447815,1-1,1H37.016113c-0.552307,0-1-0.447815-1-1V50.78656c0-0.552185,0.447693-1,1-1  h15.967773c0.552185,0,1,0.447815,1,1V57.191895z M53.983887,45.924255c0,0.552246-0.447815,1-1,1H37.016113  c-0.552307,0-1-0.447754-1-1v-6.405762c0-0.552185,0.447693-1,1-1h15.967773c0.552185,0,1,0.447815,1,1V45.924255z"
     id="path909"
     style="fill:#00a5cb;fill-opacity:1" /><path
     d="M44.080505,25.256775v3.414124h1.838867v-3.414124c0-0.552185,0.447815-1,1-1h3.414124v-1.838379h-3.414124  c-0.552185,0-1-0.447693-1-1v-3.414001h-1.838867v3.414001c0,0.552307-0.447693,1-1,1h-3.414001v1.838379h3.414001  C43.632813,24.256775,44.080505,24.70459,44.080505,25.256775z"
     id="path911"
     style="fill:#00a5cb;fill-opacity:1" /><rect
     x="38.016113"
     y="63.78656"
     width="13.967773"
     height="4.405334"
     id="rect913"
     style="fill:#00a5cb;fill-opacity:1" /></svg>