<?xml version="1.0" encoding="UTF-8" standalone="no"?>
<svg
   xmlns:dc="http://purl.org/dc/elements/1.1/"
   xmlns:cc="http://creativecommons.org/ns#"
   xmlns:rdf="http://www.w3.org/1999/02/22-rdf-syntax-ns#"
   xmlns:svg="http://www.w3.org/2000/svg"
   xmlns="http://www.w3.org/2000/svg"
   xmlns:sodipodi="http://sodipodi.sourceforge.net/DTD/sodipodi-0.dtd"
   xmlns:inkscape="http://www.inkscape.org/namespaces/inkscape"
   version="1.1"
   x="0px"
   y="0px"
   viewBox="0 0 80 100"
   style="enable-background:new 0 0 80 80;"
   xml:space="preserve"
   id="svg5950"
   sodipodi:docname="77.svg"
   inkscape:version="0.92.4 (5da689c313, 2019-01-14)"><metadata
     id="metadata5956"><rdf:RDF><cc:Work
         rdf:about=""><dc:format>image/svg+xml</dc:format><dc:type
           rdf:resource="http://purl.org/dc/dcmitype/StillImage" /></cc:Work></rdf:RDF></metadata><defs
     id="defs5954" /><sodipodi:namedview
     pagecolor="#ffffff"
     bordercolor="#666666"
     borderopacity="1"
     objecttolerance="10"
     gridtolerance="10"
     guidetolerance="10"
     inkscape:pageopacity="0"
     inkscape:pageshadow="2"
     inkscape:window-width="1920"
     inkscape:window-height="1001"
     id="namedview5952"
     showgrid="false"
     inkscape:zoom="4.72"
     inkscape:cx="93.101673"
     inkscape:cy="71.423512"
     inkscape:window-x="1911"
     inkscape:window-y="-9"
     inkscape:window-maximized="1"
     inkscape:current-layer="svg5950" /><g
     id="g5944"
     style="fill:#0190b0;fill-opacity:1"><path
       d="M63,23.9912v2v6c0,0.55-0.45,1-1,1h-8c-0.55,0-1-0.45-1-1v-6v-2h-3v-4c0-0.3-0.14-0.59-0.37-0.78   c-5.31-4.27-13.95-4.27-19.26,0c-0.23,0.19-0.37,0.48-0.37,0.78v4h-3v2v6c0,0.55-0.45,1-1,1h-8c-0.55,0-1-0.45-1-1v-6v-2   c-2.76,0-5,2.24-5,5v30c0,2.76,2.24,5,5,5h46c2.76,0,5-2.24,5-5v-30C68,26.2312,65.76,23.9912,63,23.9912z M32,20.4812   c4.51-3.33,11.49-3.33,16,0v3.51H32V20.4812z M50,48.9912c0,0.55-0.45,1-1,1h-5v5c0,0.55-0.45,1-1,1h-6c-0.55,0-1-0.45-1-1v-5h-5   c-0.55,0-1-0.45-1-1v-6c0-0.55,0.45-1,1-1h5v-5c0-0.55,0.45-1,1-1h6c0.55,0,1,0.45,1,1v5h5c0.55,0,1,0.45,1,1V48.9912z"
       id="path5938"
       style="fill:#0190b0;fill-opacity:1" /><polygon
       points="25,25.9912 25,23.9912 19,23.9912 19,25.9912 19,30.9912 25,30.9912  "
       id="polygon5940"
       style="fill:#0190b0;fill-opacity:1" /><polygon
       points="61,25.9912 61,23.9912 55,23.9912 55,25.9912 55,30.9912 61,30.9912  "
       id="polygon5942"
       style="fill:#0190b0;fill-opacity:1" /></g></svg>