<?xml version="1.0" encoding="UTF-8" standalone="no"?>
<svg
   xmlns:dc="http://purl.org/dc/elements/1.1/"
   xmlns:cc="http://creativecommons.org/ns#"
   xmlns:rdf="http://www.w3.org/1999/02/22-rdf-syntax-ns#"
   xmlns:svg="http://www.w3.org/2000/svg"
   xmlns="http://www.w3.org/2000/svg"
   xmlns:sodipodi="http://sodipodi.sourceforge.net/DTD/sodipodi-0.dtd"
   xmlns:inkscape="http://www.inkscape.org/namespaces/inkscape"
   data-name="Layer 1"
   viewBox="0 0 128 160"
   x="0px"
   y="0px"
   version="1.1"
   id="svg2105"
   sodipodi:docname="2222.svg"
   inkscape:version="0.92.4 (5da689c313, 2019-01-14)">
  <metadata
     id="metadata2111">
    <rdf:RDF>
      <cc:Work
         rdf:about="">
        <dc:format>image/svg+xml</dc:format>
        <dc:type
           rdf:resource="http://purl.org/dc/dcmitype/StillImage" />
      </cc:Work>
    </rdf:RDF>
  </metadata>
  <defs
     id="defs2109" />
  <sodipodi:namedview
     pagecolor="#ffffff"
     bordercolor="#666666"
     borderopacity="1"
     objecttolerance="10"
     gridtolerance="10"
     guidetolerance="10"
     inkscape:pageopacity="0"
     inkscape:pageshadow="2"
     inkscape:window-width="1920"
     inkscape:window-height="1001"
     id="namedview2107"
     showgrid="false"
     inkscape:zoom="4.17193"
     inkscape:cx="55.491029"
     inkscape:cy="76.040759"
     inkscape:window-x="1911"
     inkscape:window-y="-9"
     inkscape:window-maximized="1"
     inkscape:current-layer="svg2105" />
  <title
     id="title2079">miscellaneous75 solid</title>
  <path
     d="M103,28.00006a10,10,0,1,0,10,10A10.003,10.003,0,0,0,103,28.00006Z"
     id="path2081"
     style="fill:#0190b0;fill-opacity:1" />
  <path
     d="M6,6a6,6,0,1,0,6,6A6.00476,6.00476,0,0,0,6,6Zm0,8a2,2,0,1,1,2-2A2.00591,2.00591,0,0,1,6,14Z"
     id="path2083"
     style="fill:#0190b0;fill-opacity:1" />
  <path
     d="M22,0a6,6,0,1,0,6,6A6.00476,6.00476,0,0,0,22,0Zm0,8a2,2,0,1,1,2-2A2.00591,2.00591,0,0,1,22,8Z"
     id="path2085"
     style="fill:#0190b0;fill-opacity:1" />
  <path
     d="M83,98.00006a10,10,0,1,0,10,10A10.003,10.003,0,0,0,83,98.00006Z"
     id="path2087"
     style="fill:#0190b0;fill-opacity:1" />
  <path
     d="M23,16a7,7,0,1,0,7,7A7.00771,7.00771,0,0,0,23,16Zm0,10a3,3,0,1,1,3-3A3.00883,3.00883,0,0,1,23,26Z"
     id="path2089"
     style="fill:#0190b0;fill-opacity:1" />
  <path
     d="M94.22888,99.67419a13.96232,13.96232,0,0,1,1.90863,3.53461,34.12754,34.12754,0,0,0,13.34534-52.81171,13.88239,13.88239,0,0,1-4.06238,1.37891A30.13855,30.13855,0,0,1,94.22888,99.67419Z"
     id="path2091"
     style="fill:#0190b0;fill-opacity:1" />
  <path
     d="M36,34.00006H2a2,2,0,0,0,0,4H3V42H8a2,2,0,0,1,0,4H3v2H8a2,2,0,0,1,0,4H3v2H8a2,2,0,0,1,0,4H3v2H8a2,2,0,0,1,0,4H3v2H8a2,2,0,0,1,0,4H3v2H8a2,2,0,0,1,0,4H3v2H8a2,2,0,0,1,0,4H3v2H8a2,2,0,0,1,0,4H3v2H8a2,2,0,0,1,0,4H3v2H8a2,2,0,0,1,0,4H3v2H8a2,2,0,0,1,0,4H3v2H8a2,2,0,0,1,0,4H3v2H8a2,2,0,0,1,0,4H3v.05573a10.01373,10.01373,0,0,0,10.05957,9.94434H24.94043A10.01373,10.01373,0,0,0,35,118.05573V118H30a2,2,0,0,1,0-4h5v-2H30a2,2,0,0,1,0-4h5v-2H30a2,2,0,0,1,0-4h5v-2H30a2,2,0,0,1,0-4h5V94H30a2,2,0,0,1,0-4h5V88H30a2,2,0,0,1,0-4h5V82H30a2,2,0,0,1,0-4h5V76H30a2,2,0,0,1,0-4h5V70H30a2,2,0,0,1,0-4h5V64H30a2,2,0,0,1,0-4h5V58H30a2,2,0,0,1,0-4h5V52H30a2,2,0,0,1,0-4h5V46H30a2,2,0,0,1,0-4h5V38.00006h1a2,2,0,0,0,0-4Z"
     id="path2093"
     style="fill:#0190b0;fill-opacity:1" />
  <path
     d="M80.72,59.3,60.63,38.41l-2.69-2.8a1.75828,1.75828,0,0,0-.49-.37,2.19823,2.19823,0,0,0-.56-.2A1.72418,1.72418,0,0,0,56.5,35a1.98714,1.98714,0,0,0-1.39.56,2.00393,2.00393,0,0,0-.05,2.83L62.46,46.08,51.39,57.03a4.4614,4.4614,0,0,0-.12,6.35l4.13,4.24a4.62926,4.62926,0,0,0,6.42.13l11-10.89,7.24,7.53a2.50973,2.50973,0,0,0,.31.25995,2.02478,2.02478,0,0,0,1.95.17,2.15939,2.15939,0,0,0,.26-.14,1.83488,1.83488,0,0,0,.31-.24,2.00393,2.00393,0,0,0,.05-2.83Z"
     id="path2095"
     style="fill:#0190b0;fill-opacity:1" />
  <path
     d="M118.21,2.87l-.58-.7-.09-.11A6.63278,6.63278,0,0,0,112.87,0a6.5,6.5,0,0,0-4.74,1.87L100.37,9.4A8.935,8.935,0,0,0,95.57,8a9.03279,9.03279,0,0,0-6.32,2.58L63.5,35.62,83.59,56.51l9.21-8.95a14.201,14.201,0,0,1-2.78-4.33A13.80686,13.80686,0,0,1,89,38a14.01537,14.01537,0,0,1,14-14,13.84325,13.84325,0,0,1,7.24,2.04c.01,0,.01.01.02.01a16.9714,16.9714,0,0,1,1.48,1.03,9.34343,9.34343,0,0,0-1.39-7.43l7.61-7.39A6.73115,6.73115,0,0,0,118.21,2.87ZM88.41,27.41l-10,10A1.994,1.994,0,1,1,75.59,34.59l10-10A1.994,1.994,0,0,1,88.41,27.41ZM115.18,9.39l-7.5,7.28-4.34-4.58L110.91,4.74A2.5315,2.5315,0,0,1,112.79,4a2.63946,2.63946,0,0,1,1.81.77l.56.69.09.11A2.71962,2.71962,0,0,1,115.18,9.39Z"
     id="path2097"
     style="fill:#0190b0;fill-opacity:1" />
  <path
     d="M110,114.00006H96.36322a45.03494,45.03494,0,0,0,20.27826-72.89642,13.894,13.894,0,0,1-1.702,4.1698A41.06579,41.06579,0,0,1,96.898,109.62286l-.00018.00122a13.989,13.989,0,0,1-27.34076,2.24976c-.0246-.08337-.0423-.16937-.06531-.25336-.08173-.30444-.1637-.60852-.225-.92078-.08215-.40979-.14728-.82562-.191-1.24823A40.85533,40.85533,0,0,1,47.05,90.00006H53.3446a34.343,34.343,0,0,0,16.38269,13.57739,13.88757,13.88757,0,0,1,.69519-1.68622c.03992-.082.07733-.16522.11884-.24628.121-.23627.24963-.467.38348-.69525.05957-.10168.1214-.2016.18347-.30164.14044-.22632.2818-.45123.43451-.66876A30.3078,30.3078,0,0,1,58.22,90.00006H65a2,2,0,0,0,0-4H39v4h3.59912a44.84265,44.84265,0,0,0,27.43066,24H52a6.00656,6.00656,0,0,0-6,6v2a6.00656,6.00656,0,0,0,6,6h58a6.00656,6.00656,0,0,0,6-6v-2A6.00656,6.00656,0,0,0,110,114.00006Z"
     id="path2099"
     style="fill:#0190b0;fill-opacity:1" />
</svg>
