<?xml version="1.0" encoding="UTF-8" standalone="no"?>
<svg
   xmlns:dc="http://purl.org/dc/elements/1.1/"
   xmlns:cc="http://creativecommons.org/ns#"
   xmlns:rdf="http://www.w3.org/1999/02/22-rdf-syntax-ns#"
   xmlns:svg="http://www.w3.org/2000/svg"
   xmlns="http://www.w3.org/2000/svg"
   xmlns:sodipodi="http://sodipodi.sourceforge.net/DTD/sodipodi-0.dtd"
   xmlns:inkscape="http://www.inkscape.org/namespaces/inkscape"
   version="1.1"
   x="0px"
   y="0px"
   viewBox="0 0 64 80"
   style="enable-background:new 0 0 64 64;"
   xml:space="preserve"
   id="svg986"
   sodipodi:docname="9999.svg"
   inkscape:version="0.92.4 (5da689c313, 2019-01-14)"><metadata
     id="metadata992"><rdf:RDF><cc:Work
         rdf:about=""><dc:format>image/svg+xml</dc:format><dc:type
           rdf:resource="http://purl.org/dc/dcmitype/StillImage" /></cc:Work></rdf:RDF></metadata><defs
     id="defs990" /><sodipodi:namedview
     pagecolor="#ffffff"
     bordercolor="#666666"
     borderopacity="1"
     objecttolerance="10"
     gridtolerance="10"
     guidetolerance="10"
     inkscape:pageopacity="0"
     inkscape:pageshadow="2"
     inkscape:window-width="1920"
     inkscape:window-height="1001"
     id="namedview988"
     showgrid="false"
     inkscape:zoom="10.1"
     inkscape:cx="32"
     inkscape:cy="24.158416"
     inkscape:window-x="1911"
     inkscape:window-y="-9"
     inkscape:window-maximized="1"
     inkscape:current-layer="svg986" /><g
     id="g980"
     style="fill:#0190b0;fill-opacity:1"><g
       id="g974"
       style="fill:#0190b0;fill-opacity:1"><path
         d="M20,27.3h1.5c-1-2.2-1-4.4,0-6.5c1-2.1,3-3.4,5.1-3.4c0.5,0,1.1,0.1,1.6,0.2c0.7,0.2,1.3,0.5,2,0.9    c0.2,0.1,0.5,0.2,0.7,0.4l0,0c0.4,0.2,0.7,0.3,1,0.3H32c0.3,0,0.7-0.1,1-0.3l0,0c0.2-0.1,0.5-0.2,0.7-0.4c0.7-0.4,1.3-0.7,2-0.9    c0.5-0.2,1.1-0.2,1.6-0.2c2.1,0,4.1,1.2,5.1,3.4c1,2.1,1,4.3,0,6.5h1.5c0.2-0.6,0.4-1.3,0.5-1.9c0.3-1.8,0-3.5-0.8-5.2    c-1.6-3.3-5-4.8-8.3-3.8c-0.8,0.2-1.5,0.6-2.2,1c-0.2,0.1-0.4,0.2-0.6,0.3c-0.2,0.1-0.3,0.1-0.4,0.1h-0.1c-0.1,0-0.3,0-0.4-0.1    c-0.2-0.1-0.4-0.2-0.6-0.3c-0.7-0.4-1.4-0.8-2.2-1c-3.3-1-6.8,0.6-8.3,3.8c-0.8,1.7-1.1,3.4-0.8,5.2C19.6,26,19.7,26.6,20,27.3z"
         id="path968"
         style="fill:#0190b0;fill-opacity:1" /><path
         d="M47.2,26.7c-1.1,0-2,0.8-2.2,1.8h-5.8c-0.3,0-0.5,0.1-0.7,0.4l0,0l-2-3.4c-0.1-0.2-0.4-0.4-0.6-0.4    c-0.3,0-0.5,0.1-0.7,0.3l-2.7,3.2l-1.2-1.7c-0.2-0.3-0.5-0.4-0.8-0.3c-0.3,0-0.6,0.3-0.6,0.6L29,29.9l-1.2-8.3    c0-0.4-0.3-0.6-0.7-0.7c-0.3-0.1-0.7,0.1-0.9,0.4l-3.7,7.2H19c-0.2-1-1.2-1.7-2.2-1.7c-1.3,0-2.3,1-2.3,2.3c0,1.3,1,2.3,2.3,2.3    c1,0,1.9-0.7,2.2-1.6h3.9c0.3,0,0.6-0.2,0.7-0.4l3.2-6.2l1.2,8.9c0.1,0.4,0.4,0.7,0.7,0.7c0,0,0,0,0.1,0c0.4,0,0.7-0.2,0.8-0.6    l1.2-3.8l1.1,1.5c0.1,0.2,0.4,0.3,0.6,0.3c0.3,0,0.5-0.1,0.7-0.3l2.6-3.2l2,3.5c0.1,0.3,0.4,0.4,0.7,0.4c0.3,0,0.6-0.1,0.7-0.4    l0.3-0.4H45c0.3,0.9,1.2,1.6,2.2,1.6c1.3,0,2.3-1,2.3-2.3C49.5,27.7,48.5,26.7,47.2,26.7z M17.7,29.7c-0.2,0.3-0.6,0.5-1,0.5    c-0.6,0-1.2-0.5-1.2-1.2s0.5-1.2,1.2-1.2c0.4,0,0.8,0.2,1,0.6c0.1,0.2,0.1,0.4,0.1,0.6C18,29.3,17.9,29.5,17.7,29.7z M47.2,30.1    c-0.4,0-0.7-0.2-0.9-0.4C46.1,29.5,46,29.3,46,29c0-0.2,0-0.3,0.1-0.5c0.2-0.4,0.6-0.7,1.1-0.7c0.6,0,1.2,0.5,1.2,1.2    C48.4,29.6,47.8,30.1,47.2,30.1z"
         id="path970"
         style="fill:#0190b0;fill-opacity:1" /><path
         d="M39.9,30.9c-0.1,0.1-0.6,0.7-0.6,0.7c-1.6,1.6-3.4,2.9-4.9,3.8c-0.3,0.2-0.6,0.3-0.8,0.5c-0.5,0.3-1,0.6-1.5,0.9l0,0    c0,0,0,0-0.1,0c0,0,0,0-0.1,0l0,0c-0.5-0.3-1-0.6-1.5-0.9c-0.3-0.2-0.6-0.3-0.8-0.5c-0.3-0.2-0.6-0.4-0.9-0.6    c-0.1-0.1-0.2-0.1-0.3-0.2c-1.5-1-3.2-2.4-4.6-3.9c-0.3,0.1-0.6,0.2-0.9,0.2h-0.7c2,2.5,4.6,4.4,6.6,5.6c0.3,0.2,0.6,0.4,0.8,0.5    c0.5,0.3,1,0.6,1.4,0.9c0.3,0.2,0.5,0.3,0.9,0.3l0,0l0,0c0.3,0,0.6-0.1,0.9-0.3c0.5-0.3,0.9-0.6,1.4-0.9c0.3-0.2,0.6-0.3,0.8-0.5    c2-1.2,4.6-3.2,6.6-5.6C41.7,30.9,39.9,30.9,39.9,30.9z"
         id="path972"
         style="fill:#0190b0;fill-opacity:1" /></g><path
       d="M62.4,53.7l-4.8-5.8c-0.3-0.3-0.8-0.6-1.3-0.6H32.1h-0.3H7.6c-0.5,0-1,0.2-1.3,0.6l-4.8,5.8c-0.7,0.8,0,2,1.3,2h29h0.3h29   C62.4,55.7,63.1,54.6,62.4,53.7z M39.7,54.5H24.3c-0.7,0-1.2-0.7-1-1.4l0.3-1.3c0.1-0.5,0.5-0.8,1-0.8h14.8c0.5,0,0.9,0.3,1,0.8   l0.3,1.3C40.9,53.8,40.4,54.5,39.7,54.5z"
       id="path976"
       style="fill:#0190b0;fill-opacity:1" /><path
       d="M55.4,8.3H8.6c-2,0-3.6,1.6-3.6,3.6v30.6c0,2,1.6,3.6,3.6,3.6h46.7c2,0,3.6-1.6,3.6-3.6V11.9C58.9,9.9,57.3,8.3,55.4,8.3z    M32.1,9.3c0.5,0,0.8,0.4,0.8,0.8c0,0.5-0.4,0.8-0.8,0.8c-0.5,0-0.8-0.4-0.8-0.8C31.3,9.6,31.7,9.3,32.1,9.3z M55.5,15.5v23.3v3.6   H52H12H8.5v-3.6V15.5v-3.6H12H52h3.5V15.5z"
       id="path978"
       style="fill:#0190b0;fill-opacity:1" /></g></svg>