<?xml version="1.0" encoding="UTF-8" standalone="no"?>
<svg
   xmlns:dc="http://purl.org/dc/elements/1.1/"
   xmlns:cc="http://creativecommons.org/ns#"
   xmlns:rdf="http://www.w3.org/1999/02/22-rdf-syntax-ns#"
   xmlns:svg="http://www.w3.org/2000/svg"
   xmlns="http://www.w3.org/2000/svg"
   xmlns:sodipodi="http://sodipodi.sourceforge.net/DTD/sodipodi-0.dtd"
   xmlns:inkscape="http://www.inkscape.org/namespaces/inkscape"
   version="1.1"
   x="0px"
   y="0px"
   viewBox="0 0 100 125"
   enable-background="new 0 0 100 100"
   xml:space="preserve"
   id="svg1494"
   sodipodi:docname="1040.svg"
   inkscape:version="0.92.4 (5da689c313, 2019-01-14)"><metadata
     id="metadata1500"><rdf:RDF><cc:Work
         rdf:about=""><dc:format>image/svg+xml</dc:format><dc:type
           rdf:resource="http://purl.org/dc/dcmitype/StillImage" /></cc:Work></rdf:RDF></metadata><defs
     id="defs1498" /><sodipodi:namedview
     pagecolor="#ffffff"
     bordercolor="#666666"
     borderopacity="1"
     objecttolerance="10"
     gridtolerance="10"
     guidetolerance="10"
     inkscape:pageopacity="0"
     inkscape:pageshadow="2"
     inkscape:window-width="1920"
     inkscape:window-height="1001"
     id="namedview1496"
     showgrid="false"
     inkscape:zoom="5.3400704"
     inkscape:cx="46.067214"
     inkscape:cy="70.798567"
     inkscape:window-x="1911"
     inkscape:window-y="-9"
     inkscape:window-maximized="1"
     inkscape:current-layer="svg1494" /><g
     id="g1488"
     style="fill:#0190b0;fill-opacity:1"><path
       d="M63.748,22.043c-0.66-5.341-4.269-9.701-9.089-11.445C53.201,10.07,51.635,9.772,50,9.772c-2.683,0-5.192,0.778-7.32,2.122   c-1.998,1.261-3.654,3.024-4.801,5.121c-0.833,1.523-1.402,3.217-1.626,5.027c0.122,0.112,0.237,0.229,0.347,0.351   c0.809,0.902,1.274,2.082,1.274,3.347v6.206c0,0.543-0.088,1.065-0.248,1.556c1.137,3.019,2.916,5.942,5.112,8.091   c1.258,1.228,2.65,2.198,4.135,2.787c1.019,0.406,2.084,0.629,3.179,0.629s2.159-0.222,3.181-0.629   c1.535-0.61,2.976-1.626,4.266-2.919c0.737-0.735,1.423-1.564,2.055-2.449c-0.506,0.097-1.019,0.182-1.542,0.243   c-0.691,0.695-1.63,1.099-2.634,1.099h-2.442c-2.066,0-3.746-1.692-3.746-3.772c0-2.075,1.68-3.763,3.746-3.763h2.442   c0.826,0,1.614,0.272,2.255,0.759c1.673-0.236,3.237-0.724,4.499-1.398c-0.004-0.078-0.007-0.156-0.007-0.235v-6.206   C62.125,24.305,62.725,22.977,63.748,22.043z"
       id="path1472"
       style="fill:#0190b0;fill-opacity:1" /><path
       d="M66.318,45.378c0.073,0.135,0.147,0.268,0.214,0.409c0.284,0.605,0.481,1.236,0.587,1.877   c0.184,0.062,0.352,0.134,0.512,0.221c1.714,0.916,2.361,3.056,1.445,4.769c-0.614,1.15-1.806,1.863-3.11,1.863   c-0.575,0-1.149-0.144-1.661-0.418c-0.829-0.443-1.437-1.184-1.709-2.086c-0.273-0.9-0.179-1.853,0.264-2.683   c0.442-0.824,1.194-1.429,2.094-1.698c-0.225-0.881-0.728-1.882-1.537-2.558c-1.325-0.078-2.551-0.131-3.385-0.391   c-0.185,1.53-4.625,6.55-7.534,9.705l-1.262-4.867c0.948-0.56,1.155-1.793,1.155-2.819h-4.784c0,1.017,0.206,2.239,1.134,2.805   L47.5,54.385c-2.91-3.151-7.353-8.174-7.534-9.701c-0.804,0.25-1.97,0.309-3.24,0.383c-0.892,0.675-1.547,1.656-1.787,2.5   c0.283,0.208,0.511,0.493,0.663,0.824c1.356,0.64,2.555,1.989,3.472,3.908c0.154,0.323,0.174,0.688,0.061,1.021   c0.441,1.135,0.721,2.347,0.818,3.456h35.267c0.628,0,1.226,0.127,1.772,0.354c-0.028-0.132-0.047-0.265-0.085-0.395   c-1.111-3.827-2.563-6.306-4.027-7.938c-2.58-2.892-5.179-3.12-5.966-3.304C66.721,45.446,66.519,45.414,66.318,45.378z"
       id="path1474"
       style="fill:#0190b0;fill-opacity:1" /><path
       d="M36.617,53.475c-0.804-1.686-1.897-2.772-2.785-2.772c-0.908,0-2.057,1.175-2.858,2.924   c-0.13,0.285-0.359,0.518-0.641,0.656c-0.311,0.841-0.516,1.697-0.602,2.492h8.121c-0.094-0.866-0.33-1.813-0.68-2.709   C36.931,53.93,36.737,53.724,36.617,53.475z"
       id="path1476"
       style="fill:#0190b0;fill-opacity:1" /><path
       d="M27.626,56.775c0.093-1.082,0.362-2.25,0.792-3.379c-0.08-0.303-0.052-0.619,0.08-0.904   c0.562-1.229,1.278-2.283,2.066-3.045c0.436-0.418,0.902-0.755,1.391-1.001c0.178-0.417,0.481-0.768,0.856-0.991   c0.122-0.688,0.407-1.398,0.821-2.069c-0.187,0.033-0.374,0.063-0.554,0.105c-0.806,0.19-3.56,0.434-6.225,3.611   c-1.371,1.632-2.719,4.032-3.764,7.63c-0.039,0.131-0.059,0.265-0.087,0.398c0.548-0.229,1.147-0.355,1.776-0.355H27.626z"
       id="path1478"
       style="fill:#0190b0;fill-opacity:1" /><circle
       cx="65.969"
       cy="50.993"
       r="1.906"
       id="circle1480"
       style="fill:#0190b0;fill-opacity:1" /><path
       d="M72.866,93.095H27.134c-0.526,0-0.953,0.427-0.953,0.952c0,0.526,0.427,0.953,0.953,0.953h45.732   c0.526,0,0.953-0.427,0.953-0.953C73.819,93.521,73.393,93.095,72.866,93.095z"
       id="path1482"
       style="fill:#0190b0;fill-opacity:1" /><path
       d="M76.993,59.034c-0.547-0.227-1.145-0.354-1.772-0.354H39.954h-2.103H29.73h-2.104H24.78c-0.629,0-1.229,0.127-1.776,0.355   c-1.675,0.698-2.857,2.353-2.857,4.278v0.109l0.019,0.106l4.187,24.281c0.062,2.501,2.116,4.517,4.631,4.517h42.034   c2.515,0,4.569-2.016,4.631-4.517l4.187-24.281l0.019-0.107v-0.108C79.854,61.388,78.67,59.732,76.993,59.034z M50.001,77.498   c-1.102,0-1.996-0.891-1.996-1.995c0-1.101,0.894-1.991,1.996-1.991c1.1,0,1.992,0.891,1.992,1.991   C51.993,76.607,51.102,77.498,50.001,77.498z"
       id="path1484"
       style="fill:#0190b0;fill-opacity:1" /><path
       d="M32.748,35.059h0.15c1.698,0,3.072-1.391,3.072-3.112v-6.206c0-1.221-0.695-2.268-1.708-2.778   C34.7,14.565,41.59,7.867,50,7.867c8.41,0,15.304,6.698,15.74,15.096c-1.012,0.51-1.709,1.557-1.709,2.778v6.206   c0,0.413,0.08,0.798,0.221,1.154c-1.789,1.296-4.395,2.223-7.327,2.476c-0.334-0.513-0.896-0.851-1.547-0.851h-2.442   c-1.017,0-1.84,0.828-1.84,1.857c0,1.032,0.823,1.867,1.84,1.867h2.442c0.713,0,1.317-0.413,1.626-1.009   c3.404-0.268,6.368-1.323,8.445-2.878c0.476,0.307,1.042,0.495,1.657,0.495h0.147c1.701,0,3.071-1.391,3.071-3.112v-6.206   c0-1.237-0.716-2.304-1.748-2.804C68.125,12.975,59.966,5,50,5c-9.965,0-18.124,7.975-18.574,17.938   c-1.035,0.5-1.752,1.566-1.752,2.804v6.206C29.674,33.668,31.05,35.059,32.748,35.059z"
       id="path1486"
       style="fill:#0190b0;fill-opacity:1" /></g></svg>