<?xml version="1.0" encoding="UTF-8" standalone="no"?>
<svg
   xmlns:dc="http://purl.org/dc/elements/1.1/"
   xmlns:cc="http://creativecommons.org/ns#"
   xmlns:rdf="http://www.w3.org/1999/02/22-rdf-syntax-ns#"
   xmlns:svg="http://www.w3.org/2000/svg"
   xmlns="http://www.w3.org/2000/svg"
   xmlns:sodipodi="http://sodipodi.sourceforge.net/DTD/sodipodi-0.dtd"
   xmlns:inkscape="http://www.inkscape.org/namespaces/inkscape"
   version="1.1"
   x="0px"
   y="0px"
   viewBox="0 0 100 125"
   enable-background="new 0 0 100 100"
   xml:space="preserve"
   id="svg3263"
   sodipodi:docname="5555.svg"
   inkscape:version="0.92.4 (5da689c313, 2019-01-14)"><metadata
     id="metadata3269"><rdf:RDF><cc:Work
         rdf:about=""><dc:format>image/svg+xml</dc:format><dc:type
           rdf:resource="http://purl.org/dc/dcmitype/StillImage" /></cc:Work></rdf:RDF></metadata><defs
     id="defs3267" /><sodipodi:namedview
     pagecolor="#ffffff"
     bordercolor="#666666"
     borderopacity="1"
     objecttolerance="10"
     gridtolerance="10"
     guidetolerance="10"
     inkscape:pageopacity="0"
     inkscape:pageshadow="2"
     inkscape:window-width="1920"
     inkscape:window-height="1001"
     id="namedview3265"
     showgrid="false"
     inkscape:zoom="5.3400704"
     inkscape:cx="87.177755"
     inkscape:cy="72.316442"
     inkscape:window-x="1911"
     inkscape:window-y="-9"
     inkscape:window-maximized="1"
     inkscape:current-layer="svg3263" /><g
     id="g3257"
     style="fill:#0190b0;fill-opacity:1"><path
       d="M75.638,62.008c-0.219-0.047-0.436-0.096-0.656-0.135c-0.703-0.652-1.262-1.563-1.693-2.652   c-1.084-2.729-1.402-6.609-1.373-10.463c0.061-6.939,1.279-13.814,1.279-13.814s0,0,0-0.002c0-0.961-0.023-1.883-0.059-2.785   c-0.012-0.285-0.031-0.557-0.045-0.836c-0.033-0.609-0.068-1.209-0.121-1.791c-0.027-0.307-0.057-0.604-0.086-0.904   c-0.053-0.537-0.117-1.061-0.188-1.572c-0.037-0.287-0.074-0.574-0.117-0.854c-0.078-0.523-0.166-1.035-0.258-1.533   c-0.047-0.229-0.084-0.465-0.129-0.693c-0.141-0.68-0.291-1.342-0.453-1.977c-0.01-0.023-0.012-0.047-0.02-0.074   c-0.174-0.666-0.359-1.297-0.559-1.906c-0.064-0.182-0.125-0.355-0.188-0.531c-0.137-0.42-0.291-0.834-0.445-1.23   c-0.076-0.199-0.156-0.396-0.236-0.586c-0.146-0.359-0.307-0.709-0.465-1.047c-0.084-0.186-0.168-0.371-0.256-0.549   c-0.174-0.342-0.348-0.672-0.523-0.99c-0.084-0.15-0.166-0.303-0.248-0.447c-0.236-0.41-0.49-0.809-0.736-1.186   c-0.023-0.037-0.045-0.078-0.074-0.117c-0.281-0.416-0.57-0.811-0.859-1.182c-0.086-0.109-0.174-0.211-0.264-0.314   c-0.211-0.26-0.42-0.512-0.637-0.752c-0.113-0.119-0.223-0.232-0.334-0.354c-0.197-0.213-0.4-0.416-0.605-0.613   c-0.113-0.111-0.225-0.219-0.338-0.322c-0.215-0.195-0.428-0.377-0.645-0.559c-0.105-0.088-0.211-0.178-0.314-0.26   c-0.273-0.215-0.549-0.422-0.828-0.615c-0.043-0.035-0.092-0.072-0.133-0.102c-0.322-0.225-0.65-0.432-0.977-0.627   c-0.094-0.055-0.189-0.105-0.281-0.158c-0.232-0.137-0.467-0.264-0.691-0.379c-0.123-0.064-0.24-0.121-0.359-0.18   c-0.211-0.102-0.414-0.199-0.621-0.291c-0.123-0.053-0.24-0.104-0.361-0.154c-0.211-0.09-0.416-0.168-0.629-0.246   c-0.107-0.041-0.221-0.084-0.322-0.123c-0.244-0.088-0.492-0.168-0.729-0.24c-0.066-0.02-0.137-0.045-0.199-0.063   c-0.303-0.09-0.596-0.168-0.885-0.24c-0.098-0.023-0.186-0.041-0.279-0.061c-0.197-0.045-0.395-0.092-0.584-0.129   c-0.111-0.021-0.223-0.043-0.328-0.061c-0.168-0.031-0.336-0.059-0.494-0.084c-0.111-0.018-0.219-0.033-0.318-0.045   c-0.156-0.021-0.314-0.041-0.467-0.057C54.405,5.113,54.31,5.1,54.216,5.09c-0.16-0.014-0.314-0.029-0.467-0.039   c-0.08-0.004-0.158-0.014-0.229-0.018c-0.213-0.014-0.408-0.018-0.6-0.027c-0.088-0.002-0.164-0.002-0.252-0.002   c-0.094,0-0.195-0.002-0.287-0.002c-0.469,0-0.844,0.018-1.109,0.041c-0.037,0-0.061,0.002-0.09,0.006   c-0.096,0.006-0.172,0.014-0.227,0.02c-0.021,0.002-0.047,0.004-0.061,0.008c-0.053,0.002-0.084,0.008-0.084,0.008   c-0.273-0.018-0.545-0.029-0.813-0.039c-0.268,0.008-0.537,0.021-0.813,0.035c0,0-0.033-0.002-0.084-0.008   c-0.018-0.002-0.043-0.004-0.059-0.006c-0.053-0.006-0.135-0.014-0.227-0.021c-0.025-0.002-0.055-0.002-0.09-0.004   C48.46,5.018,48.087,5,47.618,5c-0.094,0-0.199,0-0.299,0c-0.082,0-0.152,0-0.236,0.002c-0.191,0.006-0.396,0.016-0.607,0.027   c-0.063,0.004-0.133,0.01-0.199,0.016c-0.158,0.01-0.322,0.023-0.496,0.043c-0.09,0.006-0.182,0.018-0.27,0.029   c-0.162,0.018-0.324,0.039-0.494,0.061c-0.098,0.014-0.195,0.029-0.295,0.043c-0.178,0.027-0.354,0.057-0.537,0.092   c-0.096,0.018-0.193,0.033-0.291,0.051c-0.213,0.043-0.422,0.092-0.645,0.139c-0.074,0.018-0.145,0.035-0.225,0.051   c-0.299,0.07-0.602,0.15-0.906,0.244c-0.049,0.012-0.098,0.031-0.148,0.045c-0.254,0.08-0.514,0.164-0.775,0.256   c-0.1,0.035-0.201,0.074-0.303,0.113c-0.219,0.082-0.436,0.168-0.656,0.26c-0.111,0.045-0.225,0.094-0.334,0.145   c-0.219,0.092-0.436,0.199-0.656,0.305c-0.109,0.053-0.221,0.105-0.33,0.164c-0.24,0.125-0.488,0.262-0.732,0.404   c-0.08,0.049-0.164,0.09-0.246,0.141c-0.328,0.197-0.658,0.406-0.99,0.635c-0.031,0.021-0.061,0.045-0.09,0.066   c-0.293,0.205-0.584,0.422-0.873,0.652c-0.098,0.076-0.195,0.16-0.293,0.238c-0.225,0.186-0.445,0.379-0.666,0.578   c-0.111,0.104-0.221,0.209-0.328,0.311c-0.213,0.201-0.418,0.412-0.625,0.631c-0.105,0.111-0.211,0.223-0.314,0.336   c-0.223,0.246-0.441,0.506-0.658,0.771c-0.08,0.1-0.16,0.191-0.24,0.295c-0.297,0.375-0.586,0.77-0.869,1.189   c-0.021,0.031-0.039,0.066-0.059,0.094c-0.258,0.385-0.504,0.789-0.756,1.211c-0.08,0.139-0.154,0.289-0.236,0.434   c-0.178,0.326-0.357,0.66-0.529,1.006c-0.088,0.178-0.17,0.357-0.254,0.541c-0.158,0.344-0.314,0.697-0.471,1.061   c-0.076,0.191-0.158,0.381-0.232,0.576c-0.156,0.402-0.307,0.82-0.451,1.248c-0.057,0.174-0.123,0.338-0.176,0.516   c-0.201,0.613-0.391,1.248-0.564,1.912c-0.006,0.025-0.014,0.055-0.018,0.08c-0.162,0.633-0.316,1.293-0.451,1.973   c-0.043,0.225-0.082,0.459-0.127,0.684c-0.092,0.498-0.182,1.014-0.262,1.539c-0.043,0.277-0.078,0.564-0.117,0.85   c-0.068,0.512-0.133,1.035-0.182,1.576c-0.033,0.301-0.061,0.598-0.088,0.906c-0.047,0.578-0.09,1.178-0.123,1.785   c-0.016,0.281-0.035,0.553-0.045,0.842c-0.037,0.9-0.061,1.824-0.061,2.783c0,0,0,0,0,0.002c0,0,1.217,6.877,1.279,13.814   c0.037,3.855-0.285,7.732-1.371,10.467c-0.436,1.088-0.988,2-1.693,2.646c-0.227,0.043-0.439,0.09-0.652,0.141   c-1.156,0.268-4.924,0.586-8.732,4.645c-2.316,2.471-4.648,6.322-6.414,12.393c-0.158,0.547-0.266,1.102-0.314,1.664   c-0.158,1.676,0.164,3.373,0.934,4.828C13.649,92.779,33.751,95,50.001,95s36.357-2.221,40.178-9.451   c0.764-1.463,1.086-3.158,0.934-4.83c-0.072-0.57-0.178-1.127-0.334-1.674c-1.764-6.076-4.096-9.922-6.41-12.389   C80.56,62.596,76.788,62.275,75.638,62.008z M32.077,33.688c0.102-0.072,0.213-0.121,0.33-0.141   c0.266-0.045,0.545,0.055,0.816,0.275c0,0,0-0.02,0.006-0.061c0.094-0.918,1.316-11.219,9.029-10.504l23.578,12.137l1.916-1.844   c0.063,0.012,0.131,0.033,0.189,0.061c0.834,0.395,1.197,2.355,0.793,4.594c-0.305,1.717-0.975,3.133-1.684,3.738   c-0.287,0.238-0.58,0.352-0.855,0.305c-0.156-0.027-0.305-0.104-0.432-0.225c-1.574,4.891-4.578,9.764-8.371,12.695   c-2.215,1.705-4.695,2.748-7.32,2.748c-2.639,0-5.135-1.057-7.359-2.783c-3.773-2.932-6.766-7.789-8.33-12.66   c-0.129,0.117-0.268,0.195-0.428,0.225c-0.32,0.057-0.666-0.105-0.992-0.434c-0.66-0.664-1.266-2.004-1.555-3.609   C31.03,36.09,31.331,34.223,32.077,33.688z M33.907,86.528c-0.339,0.282-0.762,0.437-1.207,0.437h-2.088   c-1.048,0-1.9-0.853-1.9-1.9l0.007-0.134c0.07-0.981,0.901-1.765,1.894-1.765H32.7c0.213,0,0.423,0.035,0.624,0.106   c0.126-0.036,0.166-0.065,0.166-0.065c0.233-0.412,0.233-2.129,0.233-2.953c0-1.659-0.416-3.666-1.146-5.534   c-0.378-0.215-0.683-0.54-0.871-0.933c-1.267-2.65-2.988-4.363-4.388-4.363c-1.431,0-3.238,1.852-4.498,4.605   c-0.206,0.449-0.567,0.814-1.012,1.031c-0.658,1.785-1.02,3.621-1.02,5.193c0,0.693,0,2.53,0.265,2.961   c0.003,0,0.062,0.036,0.227,0.076c0.216-0.082,0.448-0.125,0.681-0.125h2.092c0.966,0,1.773,0.729,1.884,1.678l0.011,0.021   l0.004,0.125c0,1.122-0.852,1.975-1.898,1.975h-2.092c-0.415,0-0.816-0.139-1.146-0.392c-1.194-0.224-2.037-0.751-2.571-1.609   c-0.645-1.038-0.763-2.4-0.763-4.71c0-2.027,0.468-4.359,1.318-6.588c-0.125-0.477-0.083-0.976,0.124-1.424   c0.886-1.936,2.012-3.594,3.256-4.793c0.684-0.66,1.418-1.189,2.188-1.576c0.281-0.658,0.759-1.21,1.349-1.563   c0.31-1.746,1.288-3.595,2.714-5.109c1.964-2.088,4.431-3.236,6.946-3.236h0.5v0.01c0.87,0.049,1.564,0.764,1.564,1.646   s-0.694,1.598-1.564,1.646v0.006h-0.063c-0.011,0-0.02,0.004-0.029,0.004s-0.02-0.004-0.029-0.004h-0.379   c-3.097,0-5.663,2.936-6.311,5.213c0.444,0.33,0.805,0.777,1.042,1.299c2.136,1.007,4.023,3.129,5.468,6.15   c0.242,0.509,0.273,1.083,0.096,1.607c0.866,2.23,1.361,4.665,1.361,6.711C37.032,83.121,37.032,85.832,33.907,86.528z    M49.989,76.861c0,0-12.414-11.74-14.445-14.336c-0.428-0.555-0.697-1.137-0.77-1.744v-0.002c0.1-0.037,0.33-0.117,0.639-0.258   c0.125-0.053,0.266-0.123,0.404-0.201c1.229-0.643,3.033-1.986,3.033-4.352c0,0,0,0,0.002,0c1.936,1.916,4.094,3.441,6.395,4.352   c1.547,0.615,3.162,0.955,4.82,0.955c1.66,0,3.273-0.34,4.82-0.955c2.281-0.902,4.412-2.402,6.342-4.299   c0.014,0.008,0.027,0.014,0.041,0.021c0.045,3.045,3.105,4.381,3.932,4.689c0.002,0.01,0,0.027-0.004,0.049   c-0.07,0.604-0.342,1.189-0.771,1.744C62.399,65.117,49.989,76.861,49.989,76.861z M70.999,85.875c0,0.345-0.313,0.625-0.699,0.625   h-3.801v3.799c0,0.387-0.28,0.701-0.624,0.701h-3.751c-0.345,0-0.624-0.314-0.624-0.701V86.5h-3.801c-0.386,0-0.7-0.28-0.7-0.625   v-3.75c0-0.346,0.314-0.625,0.7-0.625H61.5v-3.801c0-0.387,0.279-0.699,0.624-0.699h3.751c0.344,0,0.624,0.313,0.624,0.699V81.5   H70.3c0.387,0,0.699,0.279,0.699,0.625V85.875z M75.614,72.498c-0.969,1.809-2.846,2.933-4.897,2.933c0,0,0,0-0.001,0   c-0.905,0-1.81-0.228-2.613-0.657c-1.307-0.699-2.263-1.865-2.692-3.283c-0.43-1.419-0.281-2.92,0.418-4.226   c0.693-1.296,1.877-2.251,3.294-2.674c-0.492-1.929-1.814-4.239-4.137-5.002l-0.557-0.183c-0.046-0.016-0.094-0.026-0.138-0.045   l-0.178-0.059l0.011-0.033c-0.499-0.288-0.84-0.822-0.84-1.439c0-0.92,0.746-1.666,1.666-1.666c0.064,0,0.125,0.012,0.188,0.02   l0.009-0.025l0.117,0.038c0.135,0.025,0.262,0.069,0.382,0.125l0.374,0.122c2.391,0.787,4.375,2.648,5.589,5.244   c0.447,0.952,0.757,1.945,0.923,2.953c0.288,0.098,0.555,0.213,0.808,0.348C76.035,66.432,77.056,69.8,75.614,72.498z"
       id="path3253"
       style="fill:#0190b0;fill-opacity:1" /><circle
       cx="70.72"
       cy="69.881"
       r="3"
       id="circle3255"
       style="fill:#0190b0;fill-opacity:1" /></g></svg>