<?xml version="1.0" encoding="UTF-8" standalone="no"?>
<svg
   xmlns:x="adobe:ns:meta/"
   xmlns:dc="http://purl.org/dc/elements/1.1/"
   xmlns:cc="http://creativecommons.org/ns#"
   xmlns:rdf="http://www.w3.org/1999/02/22-rdf-syntax-ns#"
   xmlns:svg="http://www.w3.org/2000/svg"
   xmlns="http://www.w3.org/2000/svg"
   xmlns:sodipodi="http://sodipodi.sourceforge.net/DTD/sodipodi-0.dtd"
   xmlns:inkscape="http://www.inkscape.org/namespaces/inkscape"
   version="1.1"
   x="0px"
   y="0px"
   viewBox="0 0 56 70"
   style="enable-background:new 0 0 56 56;"
   xml:space="preserve"
   id="svg1500"
   sodipodi:docname="3333.svg"
   inkscape:version="0.92.4 (5da689c313, 2019-01-14)"><defs
     id="defs1504" /><sodipodi:namedview
     pagecolor="#ffffff"
     bordercolor="#666666"
     borderopacity="1"
     objecttolerance="10"
     gridtolerance="10"
     guidetolerance="10"
     inkscape:pageopacity="0"
     inkscape:pageshadow="2"
     inkscape:window-width="1920"
     inkscape:window-height="1001"
     id="namedview1502"
     showgrid="false"
     inkscape:zoom="13.485714"
     inkscape:cx="30.773401"
     inkscape:cy="39.679994"
     inkscape:window-x="-9"
     inkscape:window-y="-9"
     inkscape:window-maximized="1"
     inkscape:current-layer="svg1500" /><metadata
     id="metadata1488"><?xpacket begin="&#65279;" id="W5M0MpCehiHzreSzNTczkc9d"?><x:xmpmeta
       x:xmptk="Adobe XMP Core 5.6-c145 79.163499, 2018/08/13-16:40:22        " /><?xpacket end="w"?><rdf:RDF><cc:Work
         rdf:about=""><dc:format>image/svg+xml</dc:format><dc:type
           rdf:resource="http://purl.org/dc/dcmitype/StillImage" /></cc:Work></rdf:RDF></metadata><path
     d="M8.3302002,52h29.0999756c-2.0599976-1.6500244-3.3800049-4.1799927-3.3800049-7.0200195v-7.3800049H11.880188  l6.3099976-9.4599609c0.1099854-0.1600342,0.1599731-0.3600464,0.1599731-0.5599976V10.2099609h10.9800415v17.3700562  c0,0.1999512,0.0599976,0.3899536,0.1699829,0.5599976l4.5499878,6.8299561v-3.6099854l-2.7199707-4.0800171V10.2099609h1.25  h0.0599976c0.5499878,0,1-0.4499512,1-1v-0.289978V5c0-0.5499878-0.4500122-1-1-1H15.0401611c-0.5499878,0-1,0.4500122-1,1  v4.2099609c0,0.5500488,0.4500122,1,1,1h1.3099976v17.0700073L4.630188,44.8599854  C3.6501465,46.25,3.5301514,48.0499878,4.3101807,49.5599976C5.0901489,51.0700073,6.630188,52,8.3302002,52z"
     id="path1490"
     style="fill:#00a5cb;fill-opacity:1" /><path
     d="M49.2201538,9.6699829h-12.289978c-1.6500244,0-2.9899902,1.3400269-2.9899902,2.9899902  c0,0.7900391,0.3099976,1.5400391,0.8699951,2.1000366c0.5499878,0.5599976,1.3200073,0.8800049,2.1199951,0.8800049h12.289978  c1.6400146,0,2.9800415-1.3400269,2.9800415-2.9800415C52.2001953,11.0100098,50.8601685,9.6699829,49.2201538,9.6699829z"
     id="path1492"
     style="fill:#00a5cb;fill-opacity:1" /><path
     d="M36.9301758,17.6400146c-0.2999878,0-0.5900269-0.0300293-0.8800049-0.0900269v27.4299927  C36.0501709,48.8499756,39.2001953,52,43.0701904,52s7.0199585-3.1500244,7.0199585-7.0200195V17.5599976  c-0.2799683,0.0499878-0.5699463,0.0800171-0.8699951,0.0800171H36.9301758z M48.2301636,39.5999756h-2  c-0.5499878,0-1-0.4500122-1-1s0.4500122-1,1-1h2c0.5499878,0,1,0.4500122,1,1S48.7801514,39.5999756,48.2301636,39.5999756z   M48.2301636,36.1799927h-3.1699829c-0.5499878,0-1-0.4500122-1-1s0.4500122-1,1-1h3.1699829c0.5499878,0,1,0.4500122,1,1  S48.7801514,36.1799927,48.2301636,36.1799927z M48.2301636,32.7600098h-2c-0.5499878,0-1-0.4500122-1-1  c0-0.5500488,0.4500122-1,1-1h2c0.5499878,0,1,0.4499512,1,1C49.2301636,32.3099976,48.7801514,32.7600098,48.2301636,32.7600098z   M48.2301636,29.3399658h-2c-0.5499878,0-1-0.4499512-1-1c0-0.5499878,0.4500122-1,1-1h2c0.5499878,0,1,0.4500122,1,1  C49.2301636,28.8900146,48.7801514,29.3399658,48.2301636,29.3399658z M48.2301636,25.9199829h-3.1699829  c-0.5499878,0-1-0.4500122-1-1c0-0.5599976,0.4500122-1,1-1h3.1699829c0.5499878,0,1,0.4400024,1,1  C49.2301636,25.4699707,48.7801514,25.9199829,48.2301636,25.9199829z M48.2301636,22.5h-2c-0.5499878,0-1-0.4500122-1-1  c0-0.5599976,0.4500122-1,1-1h2c0.5499878,0,1,0.4400024,1,1C49.2301636,22.0499878,48.7801514,22.5,48.2301636,22.5z"
     id="path1494"
     style="fill:#00a5cb;fill-opacity:1" /></svg>