<?xml version="1.0" encoding="UTF-8" standalone="no"?>
<svg
   xmlns:dc="http://purl.org/dc/elements/1.1/"
   xmlns:cc="http://creativecommons.org/ns#"
   xmlns:rdf="http://www.w3.org/1999/02/22-rdf-syntax-ns#"
   xmlns:svg="http://www.w3.org/2000/svg"
   xmlns="http://www.w3.org/2000/svg"
   xmlns:sodipodi="http://sodipodi.sourceforge.net/DTD/sodipodi-0.dtd"
   xmlns:inkscape="http://www.inkscape.org/namespaces/inkscape"
   version="1.1"
   x="0px"
   y="0px"
   viewBox="0 0 33 41.25"
   enable-background="new 0 0 33 33"
   xml:space="preserve"
   id="svg859"
   sodipodi:docname="1020.svg"
   inkscape:version="0.92.4 (5da689c313, 2019-01-14)"><metadata
     id="metadata865"><rdf:RDF><cc:Work
         rdf:about=""><dc:format>image/svg+xml</dc:format><dc:type
           rdf:resource="http://purl.org/dc/dcmitype/StillImage" /></cc:Work></rdf:RDF></metadata><defs
     id="defs863" /><sodipodi:namedview
     pagecolor="#ffffff"
     bordercolor="#666666"
     borderopacity="1"
     objecttolerance="10"
     gridtolerance="10"
     guidetolerance="10"
     inkscape:pageopacity="0"
     inkscape:pageshadow="2"
     inkscape:window-width="1920"
     inkscape:window-height="1001"
     id="namedview861"
     showgrid="false"
     inkscape:zoom="19.587879"
     inkscape:cx="16.5"
     inkscape:cy="24.709158"
     inkscape:window-x="1911"
     inkscape:window-y="-9"
     inkscape:window-maximized="1"
     inkscape:current-layer="svg859" /><path
     d="M30.953,3.691H2.045C1.192,3.691,0.5,4.383,0.5,5.236v20.07c0,0.856,0.692,1.546,1.545,1.546h6.275l0.416,1.455  c0.157,0.551,0.754,1.001,1.327,1.001h12.873c0.573,0,1.169-0.45,1.327-1.001l0.416-1.455h6.274c0.854,0,1.547-0.689,1.547-1.546  V5.236C32.5,4.383,31.807,3.691,30.953,3.691z M30.021,24.604H2.978V5.94h27.044V24.604z"
     id="path841"
     style="fill:#0190b0;fill-opacity:1" /><polygon
     points="17.228,17.486 13.385,17.486 13.385,21.285 8.753,21.285 8.753,17.486 4.911,17.486 4.911,13.035 8.753,13.035   8.753,9.259 13.385,9.259 13.385,13.035 17.228,13.035 "
     id="polygon843"
     style="fill:#0190b0;fill-opacity:1" /><path
     d="M28.089,10.311c0,0.116-0.094,0.21-0.21,0.21H19.52c-0.116,0-0.21-0.094-0.21-0.21V9.469c0-0.115,0.094-0.21,0.21-0.21  h8.359c0.116,0,0.21,0.095,0.21,0.21V10.311z"
     id="path845"
     style="fill:#0190b0;fill-opacity:1" /><path
     d="M28.089,13.002c0,0.115-0.094,0.21-0.21,0.21H19.52c-0.116,0-0.21-0.095-0.21-0.21V12.16c0-0.115,0.094-0.21,0.21-0.21  h8.359c0.116,0,0.21,0.095,0.21,0.21V13.002z"
     id="path847"
     style="fill:#0190b0;fill-opacity:1" /><path
     d="M28.089,15.693c0,0.115-0.094,0.209-0.21,0.209H19.52c-0.116,0-0.21-0.094-0.21-0.209v-0.842  c0-0.116,0.094-0.211,0.21-0.211h8.359c0.116,0,0.21,0.095,0.21,0.211V15.693z"
     id="path849"
     style="fill:#0190b0;fill-opacity:1" /><path
     d="M28.089,18.384c0,0.116-0.094,0.21-0.21,0.21H19.52c-0.116,0-0.21-0.094-0.21-0.21v-0.841c0-0.116,0.094-0.211,0.21-0.211  h8.359c0.116,0,0.21,0.095,0.21,0.211V18.384z"
     id="path851"
     style="fill:#0190b0;fill-opacity:1" /><path
     d="M28.089,21.075c0,0.116-0.094,0.21-0.21,0.21H19.52c-0.116,0-0.21-0.094-0.21-0.21v-0.841c0-0.117,0.094-0.211,0.21-0.211  h8.359c0.116,0,0.21,0.094,0.21,0.211V21.075z"
     id="path853"
     style="fill:#0190b0;fill-opacity:1" /><text
     x="0"
     y="48"
     fill="#000000"
     font-size="5px"
     font-weight="bold"
     font-family="'Helvetica Neue', Helvetica, Arial-Unicode, Arial, Sans-serif"
     id="text855">Created by Minh Do</text>
<text
     x="0"
     y="53"
     fill="#000000"
     font-size="5px"
     font-weight="bold"
     font-family="'Helvetica Neue', Helvetica, Arial-Unicode, Arial, Sans-serif"
     id="text857">from the Noun Project</text>
</svg>