<?xml version="1.0" encoding="UTF-8" standalone="no"?>
<svg
   xmlns:dc="http://purl.org/dc/elements/1.1/"
   xmlns:cc="http://creativecommons.org/ns#"
   xmlns:rdf="http://www.w3.org/1999/02/22-rdf-syntax-ns#"
   xmlns:svg="http://www.w3.org/2000/svg"
   xmlns="http://www.w3.org/2000/svg"
   xmlns:sodipodi="http://sodipodi.sourceforge.net/DTD/sodipodi-0.dtd"
   xmlns:inkscape="http://www.inkscape.org/namespaces/inkscape"
   version="1.1"
   x="0px"
   y="0px"
   viewBox="0 0 100 125"
   enable-background="new 0 0 100 100"
   xml:space="preserve"
   id="svg3850"
   sodipodi:docname="7777.svg"
   inkscape:version="0.92.4 (5da689c313, 2019-01-14)"><metadata
     id="metadata3856"><rdf:RDF><cc:Work
         rdf:about=""><dc:format>image/svg+xml</dc:format><dc:type
           rdf:resource="http://purl.org/dc/dcmitype/StillImage" /></cc:Work></rdf:RDF></metadata><defs
     id="defs3854" /><sodipodi:namedview
     pagecolor="#ffffff"
     bordercolor="#666666"
     borderopacity="1"
     objecttolerance="10"
     gridtolerance="10"
     guidetolerance="10"
     inkscape:pageopacity="0"
     inkscape:pageshadow="2"
     inkscape:window-width="1920"
     inkscape:window-height="1001"
     id="namedview3852"
     showgrid="false"
     inkscape:zoom="5.3400704"
     inkscape:cx="78.645379"
     inkscape:cy="68.016786"
     inkscape:window-x="1911"
     inkscape:window-y="-9"
     inkscape:window-maximized="1"
     inkscape:current-layer="svg3850" /><g
     id="g3844"
     style="fill:#0190b0;fill-opacity:1"><path
       d="M57.614,54.566h-3.458c-2.95,0-5.35-2.398-5.35-5.349c0-2.947,2.4-5.346,5.35-5.346h3.458c1.169,0,2.283,0.381,3.195,1.063   c2.353-0.329,4.549-1.002,6.323-1.934c-0.004-0.091-0.005-0.182-0.005-0.274v-8.689c0-2.025,0.845-3.896,2.288-5.216   c-1.236-9.679-9.498-17.063-19.417-17.063c-9.919,0-18.18,7.383-19.417,17.063c1.444,1.32,2.29,3.191,2.29,5.216v8.689   c0,1.175-0.314,2.268-0.821,3.245c1.685,4.154,4.176,8.13,7.214,11.102c1.859,1.817,3.916,3.25,6.112,4.122   c1.506,0.6,3.081,0.929,4.699,0.929s3.191-0.326,4.703-0.929c2.271-0.902,4.401-2.403,6.309-4.317   c1.313-1.31,2.518-2.816,3.602-4.436c-1.082,0.249-2.189,0.455-3.334,0.589C60.373,54.002,59.04,54.566,57.614,54.566z"
       id="path3836"
       style="fill:#0190b0;fill-opacity:1" /><path
       d="M10.132,83.873c0.164,0.666,0.371,1.312,0.687,1.908C14.544,92.826,34.13,95,49.973,95c0.009,0,0.019,0,0.025,0   c0.003,0,0.019,0,0.024,0c15.841,0,35.429-2.168,39.153-9.219c0.293-0.549,0.491-1.127,0.651-1.724   c0.385-1.48,0.394-3.084-0.045-4.602c-1.646-5.659-3.789-9.321-5.954-11.735c-3.816-4.275-7.658-4.615-8.821-4.886   c-0.287-0.066-0.585-0.114-0.882-0.168c0.108,0.2,0.22,0.396,0.317,0.604c0.419,0.896,0.711,1.828,0.864,2.776   c0.273,0.091,0.522,0.198,0.759,0.323c2.534,1.354,3.491,4.521,2.138,7.054c-0.909,1.7-2.672,2.755-4.599,2.755   c-0.852,0-1.7-0.215-2.456-0.619c-1.226-0.655-2.124-1.75-2.527-3.08c-0.404-1.334-0.265-2.744,0.392-3.971   c0.652-1.218,1.765-2.111,3.094-2.511c-0.332-1.304-1.076-2.783-2.272-3.782c-1.959-0.115-3.772-0.192-5.006-0.575   C64.558,63.9,57.99,71.323,53.69,75.989l-1.865-7.195c1.401-0.83,1.708-2.65,1.708-4.168H46.46c0,1.505,0.305,3.312,1.677,4.146   l-1.832,7.212C42,71.323,35.431,63.898,35.165,61.642c-1.188,0.366-2.914,0.455-4.79,0.564c-1.318,0.999-2.289,2.449-2.641,3.694   c0.417,0.311,0.755,0.73,0.979,1.221c2.006,0.944,3.777,2.939,5.134,5.776c0.226,0.477,0.257,1.018,0.09,1.51   c0.813,2.094,1.278,4.38,1.278,6.302c0,2.692,0,5.238-2.935,5.892c-0.317,0.265-0.715,0.409-1.134,0.409h-1.959   c-0.985,0-1.784-0.8-1.784-1.782l0.001-0.07c0.039-0.947,0.833-1.716,1.783-1.716h1.959c0.202,0,0.399,0.035,0.588,0.102   c0.119-0.034,0.156-0.062,0.156-0.062c0.218-0.388,0.218-1.999,0.218-2.772c0-1.561-0.392-3.445-1.076-5.196   c-0.353-0.203-0.641-0.509-0.817-0.878c-1.19-2.489-2.806-4.096-4.119-4.096c-1.344,0-3.041,1.737-4.225,4.323   c-0.194,0.423-0.533,0.763-0.949,0.969c-0.62,1.676-0.961,3.402-0.961,4.878c0,0.65,0,2.374,0.25,2.778   c0.002,0.003,0.059,0.034,0.213,0.072c0.203-0.078,0.42-0.118,0.64-0.118h1.963c0.917,0,1.681,0.699,1.775,1.604l0.009,0.112   c0,1.053-0.802,1.853-1.784,1.853h-1.963c-0.39,0-0.769-0.128-1.078-0.366c-1.122-0.212-1.913-0.707-2.415-1.513   c-0.605-0.975-0.716-2.254-0.716-4.422c0-1.903,0.439-4.094,1.238-6.187c-0.118-0.45-0.079-0.915,0.117-1.339   c0.831-1.817,1.889-3.375,3.057-4.502c0.643-0.616,1.333-1.116,2.055-1.48c0.265-0.615,0.712-1.135,1.266-1.464   c0.179-1.015,0.603-2.069,1.214-3.06c-0.274,0.051-0.551,0.094-0.818,0.157c-1.192,0.278-5.264,0.643-9.204,5.338   c-2.028,2.415-4.019,5.962-5.564,11.28C9.795,80.909,9.789,82.44,10.132,83.873z"
       id="path3838"
       style="fill:#0190b0;fill-opacity:1" /><circle
       cx="73.608"
       cy="70.965"
       r="2.817"
       id="circle3840"
       style="fill:#0190b0;fill-opacity:1" /><path
       d="M71.877,46.388c0.674,0.438,1.475,0.693,2.339,0.693h0.219c2.402,0,4.346-1.949,4.346-4.355v-8.689   c0-1.729-1.015-3.226-2.478-3.916C75.663,16.164,64.111,5,49.999,5C35.886,5,24.333,16.164,23.7,30.121   c-1.467,0.69-2.483,2.187-2.483,3.916v8.689c0,2.407,1.947,4.355,4.346,4.355h0.22c2.401,0,4.347-1.949,4.347-4.355v-8.689   c0-1.708-0.984-3.177-2.418-3.889c0.62-11.759,10.379-21.131,22.287-21.131s21.669,9.372,22.288,21.131   c-1.433,0.712-2.417,2.182-2.417,3.889v8.689c0,0.579,0.112,1.115,0.311,1.617c-2.534,1.812-6.224,3.105-10.377,3.462   c-0.47-0.713-1.271-1.192-2.188-1.192h-3.458c-1.443,0-2.609,1.168-2.609,2.604c0,1.438,1.166,2.607,2.609,2.607h3.458   c1.009,0,1.867-0.573,2.301-1.408C64.737,50.037,68.932,48.566,71.877,46.388z"
       id="path3842"
       style="fill:#0190b0;fill-opacity:1" /></g></svg>